<?xml version="1.0" encoding="UTF-8" standalone="no"?>
<!-- Created with Inkscape (http://www.inkscape.org/) -->

<svg
   width="100.16428mm"
   height="19.993883mm"
   viewBox="0 0 100.16428 19.993883"
   version="1.1"
   id="svg1642"
   inkscape:version="1.1.2 (0a00cf5339, 2022-02-04, custom)"
   sodipodi:docname="logowhite.svg"
   xmlns:inkscape="http://www.inkscape.org/namespaces/inkscape"
   xmlns:sodipodi="http://sodipodi.sourceforge.net/DTD/sodipodi-0.dtd"
   xmlns="http://www.w3.org/2000/svg"
   xmlns:svg="http://www.w3.org/2000/svg">
  <sodipodi:namedview
     id="namedview1644"
     pagecolor="#ffffff"
     bordercolor="#666666"
     borderopacity="1.0"
     inkscape:pageshadow="2"
     inkscape:pageopacity="0.0"
     inkscape:pagecheckerboard="0"
     inkscape:document-units="mm"
     showgrid="false"
     width="80mm"
     inkscape:zoom="1.9827809"
     inkscape:cx="244.35378"
     inkscape:cy="70.10356"
     inkscape:window-width="1920"
     inkscape:window-height="1027"
     inkscape:window-x="-8"
     inkscape:window-y="-8"
     inkscape:window-maximized="1"
     inkscape:current-layer="layer1" />
  <defs
     id="defs1639" />
  <g
     inkscape:label="Layer 1"
     inkscape:groupmode="layer"
     id="layer1"
     transform="translate(-0.15267677,-0.15784686)">
    <path
       d="m 20.392341,0.17991406 c -0.03175,-0.0176 -0.06738,-0.0247 -0.101953,-0.0212 l -0.03175,0.004 c -0.06667,0.007 -0.122767,0.0317 -0.122767,0.0317 l 0.0095,-0.004 c -0.126647,0.0494 -0.283633,0.1517 -0.472722,0.31749997 C 18.733555,1.326364 17.592671,1.922554 16.334666,2.211834 h 0.0011 L 2.9786106,4.568394 C 0.91471857,4.931754 -0.33859443,7.0484242 0.33637557,9.0345542 v 0 L 14.307982,6.568724 c 2.734734,-0.47978 4.991101,-2.413 5.891037,-5.03767 3.52e-4,0 0.243416,-0.73024997 0.286102,-0.92074997 0.04269,-0.19402997 0.0127,-0.37393997 -0.09278,-0.43038997"
       style="fill:#1591c4;fill-opacity:1;fill-rule:nonzero;stroke:none;stroke-width:0.0352778"
       id="path1028" />
    <path
       d="m 18.017441,6.780384 h -0.02646 c -0.06667,0.0106 -0.123119,0.0353 -0.123119,0.0353 l 0.0254,-0.007 c -0.128411,0.0459 -0.289631,0.14464 -0.488245,0.3175002 -0.939447,0.82197 -2.079625,1.41816 -3.33763,1.70744 l -13.0185954,2.2930598 1.283794,3.77472 9.7073874,-1.71097 c 2.734733,-0.48331 4.9911,-2.413 5.891036,-5.0376698 v 0 -0.004 c 7.06e-4,0 0.243417,-0.72672 0.286103,-0.91722 0.04269,-0.19403 0.0127,-0.3739402 -0.09278,-0.4339202 -0.03351,-0.0176 -0.07055,-0.0212 -0.106891,-0.0176"
       style="fill:#1591c4;fill-opacity:1;fill-rule:nonzero;stroke:none;stroke-width:0.0352778"
       id="path1030" />
    <path
       d="m 15.744846,13.398504 -0.0039,0.004 c -0.07479,0.004 -0.141112,0.0317 -0.141112,0.0317 0,0 0.02434,-0.007 0.05821,-0.0106 -0.133703,0.0353 -0.305506,0.13758 -0.521053,0.32456 -0.939094,0.82197 -2.079272,1.41816 -3.336572,1.70391 l -8.7554164,1.54517 c 0.738646,2.17311 2.95081,3.48192 5.209822,3.08328 l 1.517227,-0.26811 c 2.7346284,-0.48331 4.9909954,-2.413 5.8909314,-5.0412 v 0 l 0.0011,-0.004 c 0.0063,-0.0176 0.242711,-0.72672 0.285045,-0.91722 0.04269,-0.1905 0.0127,-0.37042 -0.09278,-0.43039 -0.03493,-0.0176 -0.07373,-0.0212 -0.111478,-0.0212"
       style="fill:#1591c4;fill-opacity:1;fill-rule:nonzero;stroke:none;stroke-width:0.0352778"
       id="path1032" />
    <path
       d="m 32.08375,11.193634 h -5.540023 l -0.678039,2.93864 h 6.110465 l -0.775053,2.04611 h -8.242653 l 2.293761,-9.93422 c 0.208139,-0.90311 1.107017,-1.63336 2.007658,-1.63336 h 6.578248 l -0.472722,2.04964 h -5.775326 l -0.569383,2.4694402 h 5.53967 L 32.08375,11.193634"
       style="fill:#231f20;fill-opacity:1;fill-rule:nonzero;stroke:none;stroke-width:0.0352778"
       id="path1034" />
    <path
       d="M 32.929006,16.178384 35.38187,5.556254 c 0.207786,-0.90312 1.106664,-1.63337 2.007658,-1.63337 h 0.786342 l -2.829278,12.2555 h -2.417586"
       style="fill:#231f20;fill-opacity:1;fill-rule:nonzero;stroke:none;stroke-width:0.0352778"
       id="path1036" />
    <path
       d="m 43.210715,12.216694 h -0.973667 c -1.4605,0 -2.102556,0.45508 -2.296231,1.29469 -0.14358,0.62089 0.118533,1.15712 0.991659,1.15712 1.52788,0 1.960386,-1.07598 2.223911,-2.21545 z m 1.954741,1.7145 c -0.193675,0.83608 -0.405341,2.04611 -0.401814,2.24719 h -2.299758 c -0.02857,-0.1658 0.02963,-0.63852 0.08008,-0.85725 -0.431448,0.49037 -1.150409,1.05834 -2.695223,1.05834 -2.098322,0 -2.653594,-1.37584 -2.343503,-2.71992 0.4572,-1.97908 2.248606,-2.90336 4.800248,-2.90336 h 1.242483 l 0.119945,-0.51858 c 0.14358,-0.6208897 0.06456,-1.2276698 -1.060098,-1.2276698 -1.00718,0 -1.339144,0.41981 -1.587147,1.0583298 h -2.283177 c 0.474133,-1.5451598 1.718028,-2.7869398 4.370211,-2.7869398 2.312812,0.0176 3.379612,0.92428 2.898776,3.0056698 l -0.841023,3.64419"
       style="fill:#231f20;fill-opacity:1;fill-rule:nonzero;stroke:none;stroke-width:0.0352778"
       id="path1038" />
    <path
       d="m 49.043543,13.560774 c 0.02223,0.70556 0.503766,1.09009 1.393472,1.09009 0.890058,0 1.282347,-0.3175 1.406525,-0.85725 0.127706,-0.55386 -0.190853,-0.76906 -1.363839,-1.07245 -2.674056,-0.70555 -2.925939,-1.57691 -2.643011,-2.8045797 0.294569,-1.2735301 1.498247,-2.6352501 4.11727,-2.6352501 2.635605,0 3.208865,1.44286 3.004605,2.6176101 H 52.67539 c -0.01023,-0.3175 -0.0889,-0.9207501 -1.213908,-0.9207501 -0.788811,0 -1.138767,0.35278 -1.22802,0.7373101 -0.100894,0.4374397 0.121356,0.6385197 1.45415,0.9736597 2.749193,0.67028 2.940403,1.66159 2.645833,2.93864 -0.33337,1.44286 -1.74378,2.75167 -4.379383,2.75167 -2.652536,0 -3.432528,-1.27353 -3.277306,-2.8187 h 2.366787"
       style="fill:#231f20;fill-opacity:1;fill-rule:nonzero;stroke:none;stroke-width:0.0352778"
       id="path1040" />
    <path
       d="m 56.388725,7.4824142 h 1.34303 l 0.1658,-0.7196602 c 0.20814,-0.89959 1.10702,-1.62984 2.00766,-1.62984 h 0.76976 l -0.54257,2.3495002 h 1.71203 l -0.41839,1.81328 h -1.71239 l -0.99201,4.2968298 c -0.15134,0.65617 -0.008,0.90664 0.71403,0.90664 0.13405,0 0.36935,0 0.5408,-0.0141 l -0.37958,1.64395 c -0.50906,0.1658 -1.16347,0.1658 -1.6503,0.1658 -1.6958,0 -2.04047,-0.90311 -1.68769,-2.43064 l 1.0541,-4.5684698 h -1.34302 l 0.41874,-1.81328"
       style="fill:#231f20;fill-opacity:1;fill-rule:nonzero;stroke:none;stroke-width:0.0352778"
       id="path1042" />
    <path
       d="m 63.170175,7.4824142 h 2.41759 l -2.00766,8.6959698 h -2.41759 z m 0.32562,-1.4111102 0.11959,-0.51505 c 0.20778,-0.90312 1.10666,-1.63337 2.00766,-1.63337 h 0.78634 l -0.49636,2.14842 h -2.41723"
       style="fill:#231f20;fill-opacity:1;fill-rule:nonzero;stroke:none;stroke-width:0.0352778"
       id="path1044" />
    <path
       d="m 73.896035,13.373804 c -0.61877,1.44639 -2.00307,3.00567 -4.58858,3.00567 -2.70263,0 -3.66572,-1.86267 -3.06141,-4.48028 0.59302,-2.5682198 2.62749,-4.6178598 5.27968,-4.6178598 2.92135,0 3.25508,2.11667 3.06423,3.0903298 h -2.33363 c 0.0116,-0.7055497 -0.27869,-1.1923898 -1.21885,-1.1923898 -1.10772,0 -1.95015,0.9560298 -2.33751,2.6352498 -0.43039,1.86267 0.0473,2.70228 1.08797,2.70228 0.83962,0 1.38854,-0.48683 1.7579,-1.143 h 2.3502"
       style="fill:#231f20;fill-opacity:1;fill-rule:nonzero;stroke:none;stroke-width:0.0352778"
       id="path1046" />
    <path
       d="m 76.077965,7.4824142 h 1.34303 l 0.16616,-0.7196602 c 0.20777,-0.89959 1.10665,-1.62984 2.00764,-1.62984 h 0.76941 l -0.54257,2.3495002 h 1.71238 l -0.41874,1.81328 h -1.71203 l -0.99237,4.2968298 c -0.15099,0.65617 -0.008,0.90664 0.71402,0.90664 0.13441,0 0.36901,0 0.54116,-0.0141 l -0.37994,1.64395 c -0.5087,0.1658 -1.16346,0.1658 -1.65028,0.1658 -1.6958,0 -2.04011,-0.90311 -1.68769,-2.43064 l 1.05445,-4.5684698 h -1.34302 l 0.41839,-1.81328"
       style="fill:#231f20;fill-opacity:1;fill-rule:nonzero;stroke:none;stroke-width:0.0352778"
       id="path1048" />
    <path
       d="m 87.331215,10.872614 c 0.21555,-1.0054197 0.0106,-1.8626698 -1.16487,-1.8626698 -1.14159,0 -1.79388,0.7902201 -2.14242,1.8626698 z m -3.69852,1.47814 c -0.25188,1.09361 0.0575,2.14841 1.24989,2.14841 1.00683,0 1.38536,-0.40216 1.74061,-0.92075 h 2.40065 c -0.5461,1.05481 -1.90641,2.80106 -4.62598,2.80106 -2.87055,0 -3.62056,-2.13078 -3.09351,-4.41325 0.63183,-2.7375598 2.47474,-4.6848898 5.27827,-4.6848898 2.97144,0 3.49532,2.16605 2.99543,4.3321098 -0.0699,0.29986 -0.11218,0.48683 -0.20426,0.73731 h -5.7411"
       style="fill:#231f20;fill-opacity:1;fill-rule:nonzero;stroke:none;stroke-width:0.0352778"
       id="path1050" />
    <path
       d="m 93.727075,11.158364 c 0.83926,-0.87136 2.29129,-2.2154498 3.83717,-3.6759498 h 2.752715 l -3.781065,3.2914198 2.05916,5.40455 h -2.71956 l -1.30775,-3.85938 -1.35608,1.07244 -0.64346,2.78694 h -2.41759 l 2.45287,-10.62213 c 0.20778,-0.90312 1.10666,-1.63337 2.00765,-1.63337 h 0.78635 l -1.67041,7.23548"
       style="fill:#231f20;fill-opacity:1;fill-rule:nonzero;stroke:none;stroke-width:0.0352778"
       id="path1052" />
    <path
       style="fill:#ffffff;stroke:none;stroke-width:0.504342"
       d="m 86.827868,58.881947 c 0.193823,-0.762817 2.206379,-9.400408 4.472347,-19.194646 2.69362,-11.642684 4.462149,-18.277601 5.108407,-19.165002 0.543656,-0.746513 1.987823,-1.867943 3.209259,-2.492067 2.126429,-1.086552 2.752009,-1.13477 14.722479,-1.13477 8.3532,0 12.50169,0.174803 12.50169,0.526778 0,0.289727 -0.36802,1.991882 -0.81782,3.782566 l -0.81783,3.255789 h -10.92003 -10.92003 l -1.02438,4.665165 -1.02438,4.665165 10.41943,0.135902 10.41943,0.135903 -0.82728,3.646663 -0.82727,3.646664 -10.54662,0.252171 -10.546614,0.252171 -1.138483,4.791251 c -0.626166,2.635187 -1.148794,5.18842 -1.161396,5.673849 -0.02116,0.815219 0.847525,0.882599 11.378743,0.882599 10.65778,0 11.37849,0.05758 11.04654,0.882599 -0.19532,0.485429 -0.81849,2.074107 -1.38481,3.530395 l -1.02969,2.647796 H 101.79751 86.475463 Z"
       id="path93"
       transform="matrix(0.26458333,0,0,0.26458333,0.15267677,0.15784686)" />
    <path
       style="fill:#ffffff;stroke-width:0.504342"
       d=""
       id="path169"
       transform="matrix(0.26458333,0,0,0.26458333,0.15267677,0.15784686)" />
    <path
       style="fill:#ffffff;stroke-width:0.504342"
       d=""
       id="path208"
       transform="matrix(0.26458333,0,0,0.26458333,0.15267677,0.15784686)" />
    <path
       style="fill:#ffffff;stroke-width:0.504342"
       d=""
       id="path247"
       transform="matrix(0.26458333,0,0,0.26458333,0.15267677,0.15784686)" />
    <path
       style="fill:#ffffff;stroke-width:0.504342"
       d=""
       id="path286"
       transform="matrix(0.26458333,0,0,0.26458333,0.15267677,0.15784686)" />
    <path
       style="fill:#ffffff;stroke-width:0.504342"
       d="m 124.32034,60.056748 c 0,-1.190761 9.31515,-40.13927 9.84499,-41.163861 1.50218,-2.90491 5.23938,-4.933486 8.17377,-4.436785 1.076,0.182133 1.57716,-2.261763 -8.23107,40.138937 l -1.31248,5.673849 h -4.23761 c -2.33068,0 -4.2376,-0.09546 -4.2376,-0.21214 z"
       id="path325"
       transform="matrix(0.26458333,0,0,0.26458333,0.15267677,0.15784686)" />
    <path
       style="fill:#ffffff;stroke-width:0.504342"
       d="m 146.78053,60.537301 c -6.27023,-1.682842 -7.52119,-8.936696 -2.54394,-14.751485 3.09031,-3.61034 8.18029,-5.262762 17.90941,-5.81416 l 2.26954,-0.128625 0.15532,-2.43481 c 0.18276,-2.864955 -0.33202,-3.648437 -2.68752,-4.090332 -2.6807,-0.502902 -5.72187,0.523436 -6.71298,2.265508 -0.81703,1.436089 -0.95602,1.479468 -4.75031,1.482563 -4.23788,0.0035 -4.58135,-0.279424 -3.07479,-2.532388 2.73821,-4.094842 6.26558,-6.226426 11.69845,-7.069366 5.64811,-0.876333 10.54861,0.302066 12.90576,3.103384 1.29859,1.543286 1.37649,1.894436 1.1565,5.212926 -0.12974,1.956994 -1.15535,7.529867 -2.27913,12.38416 -1.12379,4.854293 -2.11824,9.50685 -2.2099,10.339014 l -0.16666,1.513027 -4.22816,0.14757 -4.22816,0.14757 0.3069,-1.53451 c 0.37062,-1.853121 0.21274,-1.879468 -1.84722,-0.308261 -3.08775,2.355141 -7.61519,3.157302 -11.67311,2.068215 z m 11.8026,-6.555892 c 1.47369,-0.762079 3.62739,-4.534354 4.3007,-7.532828 l 0.32872,-1.463924 -4.0372,0.311326 c -4.97687,0.383789 -7.30954,1.308702 -8.34355,3.308259 -0.83239,1.609674 -1.02768,3.977709 -0.40403,4.899129 1.24163,1.834436 5.09553,2.060338 8.15536,0.478038 z"
       id="path364"
       transform="matrix(0.26458333,0,0,0.26458333,0.15267677,0.15784686)" />
    <path
       style="fill:#ffffff;stroke-width:0.504342"
       d="m 184.695,60.757842 c -5.29039,-0.900326 -8.42742,-3.832274 -8.42742,-7.876499 v -2.194956 h 4.02797 4.02797 l 0.71724,1.716598 c 0.81215,1.943747 2.02903,2.498973 5.39656,2.462292 2.89294,-0.03151 4.24651,-0.73476 4.87294,-2.531745 0.93599,-2.684972 0.15451,-3.402338 -5.90649,-5.42195 -7.12283,-2.37343 -9.10145,-4.008803 -9.10145,-7.522558 0,-6.12024 4.57632,-10.584548 12.21344,-11.914494 7.59151,-1.322005 13.64818,1.62478 14.36787,6.990486 l 0.28164,2.099791 h -4.11363 c -3.93162,0 -4.13499,-0.05619 -4.59644,-1.2699 -1.4585,-3.83615 -9.57906,-2.520717 -9.57906,1.551693 0,1.072747 2.00561,2.16116 6.04501,3.280536 8.38602,2.323883 11.02569,5.225997 9.59297,10.546705 -1.61531,5.998812 -6.61719,9.558727 -14.37713,10.232432 -1.66433,0.144494 -4.11322,0.0777 -5.44199,-0.148431 z"
       id="path403"
       transform="matrix(0.26458333,0,0,0.26458333,0.15267677,0.15784686)" />
    <path
       style="fill:#ffffff;stroke-width:0.504342"
       d="m 214.76338,60.03802 c -3.34457,-1.454866 -3.44862,-3.915198 -0.67013,-15.845988 1.10955,-4.764414 2.01737,-8.883526 2.01737,-9.153582 0,-0.270057 -1.10382,-0.491012 -2.45292,-0.491012 h -2.45292 l 0.78437,-3.278224 0.78437,-3.278224 h 2.67723 c 2.41629,0 2.67723,-0.107371 2.67723,-1.101623 0,-1.885774 1.92206,-5.148273 3.76974,-6.398774 2.09822,-1.420053 6.3272,-2.10009 6.29914,-1.012925 -0.01,0.38281 -0.34677,2.057742 -0.74863,3.722071 -1.17254,4.856039 -1.20411,4.791251 2.3343,4.791251 h 3.08073 l -0.33479,1.386941 c -0.18414,0.762817 -0.55792,2.238018 -0.83063,3.278224 l -0.49584,1.891283 h -3.25878 c -1.79234,0 -3.25879,0.139441 -3.25879,0.30987 0,0.170429 -0.8093,3.793843 -1.79845,8.052033 -0.98915,4.258189 -1.72675,8.487612 -1.63911,9.398716 0.15059,1.565646 0.27974,1.6652 2.35338,1.81411 1.98345,0.142433 2.16496,0.263458 1.89102,1.260855 -0.16667,0.606815 -0.44167,1.931063 -0.61111,2.942775 -0.25853,1.543635 -0.55252,1.888364 -1.82797,2.143454 -2.56016,0.512032 -6.604,0.301648 -8.28881,-0.431231 z"
       id="path442"
       transform="matrix(0.26458333,0,0,0.26458333,0.15267677,0.15784686)" />
    <path
       style="fill:#ffffff;stroke-width:0.504342"
       d="m 231.24088,59.609657 c 0,-0.362577 1.58868,-7.523204 3.5304,-15.912503 1.94171,-8.3893 3.53039,-15.355174 3.53039,-15.479719 0,-0.124545 1.95558,-0.226445 4.34573,-0.226445 3.88878,0 4.32193,0.09281 4.11943,0.882599 -0.12447,0.485429 -1.79636,7.747067 -3.71531,16.136974 l -3.48899,15.254375 -4.16083,0.002 c -3.09039,0.0015 -4.16082,-0.167613 -4.16082,-0.657248 z"
       id="path481"
       transform="matrix(0.26458333,0,0,0.26458333,0.15267677,0.15784686)" />
    <path
       style="fill:#ffffff;stroke-width:0.504342"
       d="m 240.08579,20.804114 c 1.09635,-3.669187 4.59912,-6.430362 8.15742,-6.430362 1.80159,0 1.90751,0.267055 1.20012,3.026052 -0.24892,0.970859 -0.59241,2.389321 -0.76331,3.152139 -0.30931,1.380629 -0.33035,1.386941 -4.62201,1.386941 -4.2352,0 -4.3053,-0.02003 -3.97222,-1.13477 z"
       id="path520"
       transform="matrix(0.26458333,0,0,0.26458333,0.15267677,0.15784686)" />
    <path
       style="fill:#ffffff;stroke-width:0.504342"
       d="m 258.30067,60.748567 c -7.13141,-1.196137 -10.36104,-7.704395 -8.1316,-16.386581 2.34538,-9.133742 8.51448,-15.358361 16.69078,-16.841008 4.60894,-0.835759 9.66743,0.368552 11.89723,2.832461 1.286,1.421009 2.41367,4.433227 2.41367,6.44734 v 1.781396 h -4.2869 c -4.23648,0 -4.28691,-0.01483 -4.28691,-1.260855 0,-0.693471 -0.47935,-1.740202 -1.06522,-2.326069 -0.90972,-0.909719 -1.50905,-1.033108 -4.10574,-0.84528 -2.78215,0.201242 -3.20258,0.393664 -4.94757,2.264391 -3.55239,3.808342 -5.32389,13.465503 -3.00978,16.407425 1.98642,2.525324 6.3554,2.102148 9.26889,-0.897777 1.63927,-1.687909 1.8118,-1.741965 5.55973,-1.741965 h 3.86795 l -0.97119,1.903698 c -3.09699,6.070586 -11.46715,9.908406 -18.89334,8.662824 z"
       id="path559"
       transform="matrix(0.26458333,0,0,0.26458333,0.15267677,0.15784686)" />
    <path
       style="fill:#ffffff;stroke-width:0.504342"
       d="m 289.88787,60.444022 c -1.63236,-0.351693 -3.67369,-3.014905 -3.67369,-4.792867 0,-1.239585 3.39556,-17.047912 4.34341,-20.221118 0.22727,-0.760845 -0.0965,-0.882599 -2.34673,-0.882599 -2.9249,0 -2.78578,0.449151 -1.44496,-4.665165 0.48766,-1.860073 0.53654,-1.891283 2.96232,-1.891283 h 2.46649 l 0.77652,-2.671146 c 0.42709,-1.46913 1.29737,-3.160453 1.93395,-3.758495 1.51705,-1.425195 4.4995,-2.648518 6.45705,-2.648518 1.2526,0 1.51102,0.175374 1.30057,0.882599 -0.31258,1.050406 -1.8227,7.657508 -1.8227,7.974685 0,0.121481 1.44424,0.220875 3.20943,0.220875 h 3.20942 l -0.77935,3.257269 -0.77935,3.25727 -3.27012,0.14704 -3.27011,0.14704 -1.96384,8.546078 c -1.0801,4.700342 -1.83253,9.069206 -1.67206,9.708586 0.24922,0.992974 0.61472,1.162509 2.50621,1.162509 h 2.21444 l -0.65021,2.797133 c -0.35762,1.538422 -0.80633,2.953246 -0.99714,3.144051 -0.41171,0.411709 -7.10586,0.631571 -8.70955,0.286056 z"
       id="path598"
       transform="matrix(0.26458333,0,0,0.26458333,0.15267677,0.15784686)" />
    <path
       style="fill:#ffffff;stroke-width:0.504342"
       d="m 315.60079,60.745753 c -5.14732,-1.015835 -8.28673,-4.145436 -9.01827,-8.990097 -0.84181,-5.574902 2.31845,-14.598269 6.61891,-18.898732 7.50527,-7.50527 20.33819,-7.538387 23.95753,-0.06183 0.99747,2.060509 1.10436,2.885193 0.87041,6.715812 -0.14668,2.401772 -0.42654,4.759664 -0.6219,5.239761 -0.31892,0.783721 -1.47079,0.886775 -11.27442,1.008684 l -10.9192,0.135781 0.0114,2.871431 c 0.0159,4.029368 1.35723,5.450215 5.14502,5.450215 2.86611,0 5.36693,-0.960232 5.8622,-2.250887 0.23564,-0.61406 1.19764,-0.775166 4.62871,-0.775166 h 4.33125 l -0.91111,1.559985 c -2.24163,3.838069 -7.53841,7.139517 -12.8328,7.998604 -1.76472,0.286349 -3.32205,0.497483 -3.46075,0.469186 -0.13869,-0.0283 -1.21282,-0.241035 -2.38694,-0.472751 z M 329.8069,37.932882 c -0.0451,-3.314584 -1.3377,-4.588106 -4.65671,-4.588106 -3.11346,0 -5.54397,1.384975 -7.0278,4.004649 -1.87255,3.305969 -1.88832,3.296608 5.28702,3.139101 l 6.43036,-0.141153 z"
       id="path637"
       transform="matrix(0.26458333,0,0,0.26458333,0.15267677,0.15784686)" />
    <path
       style="fill:#ffffff;stroke-width:0.504342"
       d="m 340.68313,59.858871 c 0,-1.439911 9.19445,-39.974511 9.82999,-41.198211 1.13366,-2.182778 3.90843,-3.893817 6.7587,-4.167692 l 2.43648,-0.234115 -3.14323,13.548602 c -1.72878,7.451731 -3.06602,13.636183 -2.97166,13.743226 0.0944,0.107043 3.44899,-2.908884 7.45472,-6.70206 l 7.28314,-6.896683 4.55566,0.145612 4.55565,0.145611 -6.77017,5.931926 -6.77017,5.931925 1.04255,2.641891 c 1.93967,4.915256 6.50321,17.042807 6.50321,17.282185 0,0.13079 -2.13724,0.2378 -4.74943,0.2378 h -4.74943 l -2.38027,-7.186876 c -1.30915,-3.952781 -2.44898,-7.267685 -2.53297,-7.366452 -0.084,-0.09877 -1.37729,0.776847 -2.87402,1.945809 l -2.72133,2.125386 -1.16332,5.241066 -1.16332,5.241067 h -4.21539 c -2.31847,0 -4.21539,-0.184508 -4.21539,-0.410017 z"
       id="path676"
       transform="matrix(0.26458333,0,0,0.26458333,0.15267677,0.15784686)" />
  </g>
</svg>
