<?xml version="1.0" encoding="UTF-8" standalone="no"?>
<!-- Created with Inkscape (http://www.inkscape.org/) -->

<svg
   width="100.16428mm"
   height="19.993883mm"
   viewBox="0 0 100.16428 19.993883"
   version="1.1"
   id="svg1642"
   inkscape:version="1.1.2 (0a00cf5339, 2022-02-04, custom)"
   sodipodi:docname="logo.svg"
   xmlns:inkscape="http://www.inkscape.org/namespaces/inkscape"
   xmlns:sodipodi="http://sodipodi.sourceforge.net/DTD/sodipodi-0.dtd"
   xmlns="http://www.w3.org/2000/svg"
   xmlns:svg="http://www.w3.org/2000/svg">
  <sodipodi:namedview
     id="namedview1644"
     pagecolor="#ffffff"
     bordercolor="#666666"
     borderopacity="1.0"
     inkscape:pageshadow="2"
     inkscape:pageopacity="0.0"
     inkscape:pagecheckerboard="0"
     inkscape:document-units="mm"
     showgrid="false"
     width="80mm"
     inkscape:zoom="1.9827809"
     inkscape:cx="244.35378"
     inkscape:cy="70.10356"
     inkscape:window-width="1920"
     inkscape:window-height="1027"
     inkscape:window-x="-8"
     inkscape:window-y="-8"
     inkscape:window-maximized="1"
     inkscape:current-layer="layer1" />
  <defs
     id="defs1639" />
  <g
     inkscape:label="Layer 1"
     inkscape:groupmode="layer"
     id="layer1"
     transform="translate(-0.15267677,-0.15784686)">
    <path
       d="m 20.392341,0.17991406 c -0.03175,-0.0176 -0.06738,-0.0247 -0.101953,-0.0212 l -0.03175,0.004 c -0.06667,0.007 -0.122767,0.0317 -0.122767,0.0317 l 0.0095,-0.004 c -0.126647,0.0494 -0.283633,0.1517 -0.472722,0.31749997 C 18.733555,1.326364 17.592671,1.922554 16.334666,2.211834 h 0.0011 L 2.9786106,4.568394 C 0.91471857,4.931754 -0.33859443,7.0484242 0.33637557,9.0345542 v 0 L 14.307982,6.568724 c 2.734734,-0.47978 4.991101,-2.413 5.891037,-5.03767 3.52e-4,0 0.243416,-0.73024997 0.286102,-0.92074997 0.04269,-0.19402997 0.0127,-0.37393997 -0.09278,-0.43038997"
       style="fill:#1591c4;fill-opacity:1;fill-rule:nonzero;stroke:none;stroke-width:0.0352778"
       id="path1028" />
    <path
       d="m 18.017441,6.780384 h -0.02646 c -0.06667,0.0106 -0.123119,0.0353 -0.123119,0.0353 l 0.0254,-0.007 c -0.128411,0.0459 -0.289631,0.14464 -0.488245,0.3175002 -0.939447,0.82197 -2.079625,1.41816 -3.33763,1.70744 l -13.0185954,2.2930598 1.283794,3.77472 9.7073874,-1.71097 c 2.734733,-0.48331 4.9911,-2.413 5.891036,-5.0376698 v 0 -0.004 c 7.06e-4,0 0.243417,-0.72672 0.286103,-0.91722 0.04269,-0.19403 0.0127,-0.3739402 -0.09278,-0.4339202 -0.03351,-0.0176 -0.07055,-0.0212 -0.106891,-0.0176"
       style="fill:#1591c4;fill-opacity:1;fill-rule:nonzero;stroke:none;stroke-width:0.0352778"
       id="path1030" />
    <path
       d="m 15.744846,13.398504 -0.0039,0.004 c -0.07479,0.004 -0.141112,0.0317 -0.141112,0.0317 0,0 0.02434,-0.007 0.05821,-0.0106 -0.133703,0.0353 -0.305506,0.13758 -0.521053,0.32456 -0.939094,0.82197 -2.079272,1.41816 -3.336572,1.70391 l -8.7554164,1.54517 c 0.738646,2.17311 2.95081,3.48192 5.209822,3.08328 l 1.517227,-0.26811 c 2.7346284,-0.48331 4.9909954,-2.413 5.8909314,-5.0412 v 0 l 0.0011,-0.004 c 0.0063,-0.0176 0.242711,-0.72672 0.285045,-0.91722 0.04269,-0.1905 0.0127,-0.37042 -0.09278,-0.43039 -0.03493,-0.0176 -0.07373,-0.0212 -0.111478,-0.0212"
       style="fill:#1591c4;fill-opacity:1;fill-rule:nonzero;stroke:none;stroke-width:0.0352778"
       id="path1032" />
    <path
       d="m 32.08375,11.193634 h -5.540023 l -0.678039,2.93864 h 6.110465 l -0.775053,2.04611 h -8.242653 l 2.293761,-9.93422 c 0.208139,-0.90311 1.107017,-1.63336 2.007658,-1.63336 h 6.578248 l -0.472722,2.04964 h -5.775326 l -0.569383,2.4694402 h 5.53967 L 32.08375,11.193634"
       style="fill:#231f20;fill-opacity:1;fill-rule:nonzero;stroke:none;stroke-width:0.0352778"
       id="path1034" />
    <path
       d="M 32.929006,16.178384 35.38187,5.556254 c 0.207786,-0.90312 1.106664,-1.63337 2.007658,-1.63337 h 0.786342 l -2.829278,12.2555 h -2.417586"
       style="fill:#231f20;fill-opacity:1;fill-rule:nonzero;stroke:none;stroke-width:0.0352778"
       id="path1036" />
    <path
       d="m 43.210715,12.216694 h -0.973667 c -1.4605,0 -2.102556,0.45508 -2.296231,1.29469 -0.14358,0.62089 0.118533,1.15712 0.991659,1.15712 1.52788,0 1.960386,-1.07598 2.223911,-2.21545 z m 1.954741,1.7145 c -0.193675,0.83608 -0.405341,2.04611 -0.401814,2.24719 h -2.299758 c -0.02857,-0.1658 0.02963,-0.63852 0.08008,-0.85725 -0.431448,0.49037 -1.150409,1.05834 -2.695223,1.05834 -2.098322,0 -2.653594,-1.37584 -2.343503,-2.71992 0.4572,-1.97908 2.248606,-2.90336 4.800248,-2.90336 h 1.242483 l 0.119945,-0.51858 c 0.14358,-0.6208897 0.06456,-1.2276698 -1.060098,-1.2276698 -1.00718,0 -1.339144,0.41981 -1.587147,1.0583298 h -2.283177 c 0.474133,-1.5451598 1.718028,-2.7869398 4.370211,-2.7869398 2.312812,0.0176 3.379612,0.92428 2.898776,3.0056698 l -0.841023,3.64419"
       style="fill:#231f20;fill-opacity:1;fill-rule:nonzero;stroke:none;stroke-width:0.0352778"
       id="path1038" />
    <path
       d="m 49.043543,13.560774 c 0.02223,0.70556 0.503766,1.09009 1.393472,1.09009 0.890058,0 1.282347,-0.3175 1.406525,-0.85725 0.127706,-0.55386 -0.190853,-0.76906 -1.363839,-1.07245 -2.674056,-0.70555 -2.925939,-1.57691 -2.643011,-2.8045797 0.294569,-1.2735301 1.498247,-2.6352501 4.11727,-2.6352501 2.635605,0 3.208865,1.44286 3.004605,2.6176101 H 52.67539 c -0.01023,-0.3175 -0.0889,-0.9207501 -1.213908,-0.9207501 -0.788811,0 -1.138767,0.35278 -1.22802,0.7373101 -0.100894,0.4374397 0.121356,0.6385197 1.45415,0.9736597 2.749193,0.67028 2.940403,1.66159 2.645833,2.93864 -0.33337,1.44286 -1.74378,2.75167 -4.379383,2.75167 -2.652536,0 -3.432528,-1.27353 -3.277306,-2.8187 h 2.366787"
       style="fill:#231f20;fill-opacity:1;fill-rule:nonzero;stroke:none;stroke-width:0.0352778"
       id="path1040" />
    <path
       d="m 56.388725,7.4824142 h 1.34303 l 0.1658,-0.7196602 c 0.20814,-0.89959 1.10702,-1.62984 2.00766,-1.62984 h 0.76976 l -0.54257,2.3495002 h 1.71203 l -0.41839,1.81328 h -1.71239 l -0.99201,4.2968298 c -0.15134,0.65617 -0.008,0.90664 0.71403,0.90664 0.13405,0 0.36935,0 0.5408,-0.0141 l -0.37958,1.64395 c -0.50906,0.1658 -1.16347,0.1658 -1.6503,0.1658 -1.6958,0 -2.04047,-0.90311 -1.68769,-2.43064 l 1.0541,-4.5684698 h -1.34302 l 0.41874,-1.81328"
       style="fill:#231f20;fill-opacity:1;fill-rule:nonzero;stroke:none;stroke-width:0.0352778"
       id="path1042" />
    <path
       d="m 63.170175,7.4824142 h 2.41759 l -2.00766,8.6959698 h -2.41759 z m 0.32562,-1.4111102 0.11959,-0.51505 c 0.20778,-0.90312 1.10666,-1.63337 2.00766,-1.63337 h 0.78634 l -0.49636,2.14842 h -2.41723"
       style="fill:#231f20;fill-opacity:1;fill-rule:nonzero;stroke:none;stroke-width:0.0352778"
       id="path1044" />
    <path
       d="m 73.896035,13.373804 c -0.61877,1.44639 -2.00307,3.00567 -4.58858,3.00567 -2.70263,0 -3.66572,-1.86267 -3.06141,-4.48028 0.59302,-2.5682198 2.62749,-4.6178598 5.27968,-4.6178598 2.92135,0 3.25508,2.11667 3.06423,3.0903298 h -2.33363 c 0.0116,-0.7055497 -0.27869,-1.1923898 -1.21885,-1.1923898 -1.10772,0 -1.95015,0.9560298 -2.33751,2.6352498 -0.43039,1.86267 0.0473,2.70228 1.08797,2.70228 0.83962,0 1.38854,-0.48683 1.7579,-1.143 h 2.3502"
       style="fill:#231f20;fill-opacity:1;fill-rule:nonzero;stroke:none;stroke-width:0.0352778"
       id="path1046" />
    <path
       d="m 76.077965,7.4824142 h 1.34303 l 0.16616,-0.7196602 c 0.20777,-0.89959 1.10665,-1.62984 2.00764,-1.62984 h 0.76941 l -0.54257,2.3495002 h 1.71238 l -0.41874,1.81328 h -1.71203 l -0.99237,4.2968298 c -0.15099,0.65617 -0.008,0.90664 0.71402,0.90664 0.13441,0 0.36901,0 0.54116,-0.0141 l -0.37994,1.64395 c -0.5087,0.1658 -1.16346,0.1658 -1.65028,0.1658 -1.6958,0 -2.04011,-0.90311 -1.68769,-2.43064 l 1.05445,-4.5684698 h -1.34302 l 0.41839,-1.81328"
       style="fill:#231f20;fill-opacity:1;fill-rule:nonzero;stroke:none;stroke-width:0.0352778"
       id="path1048" />
    <path
       d="m 87.331215,10.872614 c 0.21555,-1.0054197 0.0106,-1.8626698 -1.16487,-1.8626698 -1.14159,0 -1.79388,0.7902201 -2.14242,1.8626698 z m -3.69852,1.47814 c -0.25188,1.09361 0.0575,2.14841 1.24989,2.14841 1.00683,0 1.38536,-0.40216 1.74061,-0.92075 h 2.40065 c -0.5461,1.05481 -1.90641,2.80106 -4.62598,2.80106 -2.87055,0 -3.62056,-2.13078 -3.09351,-4.41325 0.63183,-2.7375598 2.47474,-4.6848898 5.27827,-4.6848898 2.97144,0 3.49532,2.16605 2.99543,4.3321098 -0.0699,0.29986 -0.11218,0.48683 -0.20426,0.73731 h -5.7411"
       style="fill:#231f20;fill-opacity:1;fill-rule:nonzero;stroke:none;stroke-width:0.0352778"
       id="path1050" />
    <path
       d="m 93.727075,11.158364 c 0.83926,-0.87136 2.29129,-2.2154498 3.83717,-3.6759498 h 2.752715 l -3.781065,3.2914198 2.05916,5.40455 h -2.71956 l -1.30775,-3.85938 -1.35608,1.07244 -0.64346,2.78694 h -2.41759 l 2.45287,-10.62213 c 0.20778,-0.90312 1.10666,-1.63337 2.00765,-1.63337 h 0.78635 l -1.67041,7.23548"
       style="fill:#231f20;fill-opacity:1;fill-rule:nonzero;stroke:none;stroke-width:0.0352778"
       id="path1052" />
  </g>
</svg>
