<?xml version="1.0" encoding="utf-8"?>
<!-- Svg Vector Icons : http://www.onlinewebfonts.com/icon -->
<!DOCTYPE svg PUBLIC "-//W3C//DTD SVG 1.1//EN" "http://www.w3.org/Graphics/SVG/1.1/DTD/svg11.dtd">
<svg version="1.1" xmlns="http://www.w3.org/2000/svg" xmlns:xlink="http://www.w3.org/1999/xlink" x="0px" y="0px" viewBox="0 0 1000 1000" enable-background="new 0 0 1000 1000" xml:space="preserve">
<metadata> Svg Vector Icons : http://www.onlinewebfonts.com/icon </metadata>
<g><path d="M969.6,112.1C969.6,55.7,923.9,10,867.5,10c-56.4,0-102.1,45.7-102.1,102.1c0,49.4,35.1,90.6,81.7,100v696.2H888V212.1C934.5,202.7,969.6,161.4,969.6,112.1z M867.5,173.3c-33.8,0-61.3-27.5-61.3-61.3c0-33.8,27.5-61.2,61.3-61.2c33.8,0,61.3,27.5,61.3,61.2C928.8,145.8,901.3,173.3,867.5,173.3z"/><path d="M152.9,787.9V91.7H112v696.2c-46.6,9.5-81.7,50.6-81.7,100c0,56.4,45.7,102.1,102.1,102.1c56.4,0,102.1-45.7,102.1-102.1C234.6,838.5,199.5,797.3,152.9,787.9z M132.5,949.2c-33.8,0-61.3-27.5-61.3-61.3c0-33.8,27.5-61.3,61.3-61.3c33.8,0,61.3,27.5,61.3,61.3C193.7,921.7,166.2,949.2,132.5,949.2z"/><path d="M520.4,400V91.7h-40.8V400c-46.6,9.5-81.7,50.7-81.7,100c0,49.3,35.1,90.5,81.7,99.9v308.3h40.8V600c46.6-9.5,81.7-50.7,81.7-99.9C602.1,450.7,567,409.5,520.4,400z M500,561.2c-33.8,0-61.3-27.4-61.3-61.2c0-33.8,27.5-61.3,61.3-61.3c33.8,0,61.3,27.5,61.3,61.3C561.3,533.8,533.8,561.2,500,561.2z"/></g>
</svg>